<svg id="Capa_1" enable-background="new 0 0 512 512" height="512" viewBox="0 0 512 512" width="512" xmlns="http://www.w3.org/2000/svg"><g><g><path d="m401 0h-356c-24.81 0-45 20.19-45 45v243c0 24.81 20.19 45 45 45h356c24.81 0 45-20.19 45-45v-243c0-24.81-20.19-45-45-45z" fill="#5e69e2"/></g><g><path d="m446 45v243c0 24.81-20.19 45-45 45h-112v-333h112c24.81 0 45 20.19 45 45z" fill="#006ac1"/></g><g><path d="m66 168v185c0 24.81 20.19 45 45 45h356c24.81 0 45-20.19 45-45v-185z" fill="#6ba7ff"/></g><g><path d="m512 168v185c0 24.81-20.19 45-45 45h-178v-230z" fill="#5e69e2"/></g><g><path d="m177 335h-32c-8.284 0-15-6.716-15-15s6.716-15 15-15h32c8.284 0 15 6.716 15 15s-6.716 15-15 15z" fill="#f2f2fc"/></g><g><path d="m273 335h-32c-8.284 0-15-6.716-15-15s6.716-15 15-15h32c8.284 0 15 6.716 15 15s-6.716 15-15 15z" fill="#f2f2fc"/></g><g><path d="m512 110v58h-446v-58c0-24.81 20.19-45 45-45h356c24.81 0 45 20.19 45 45z" fill="#00e4ef"/></g><g><path d="m512 110v58h-223v-103h178c24.81 0 45 20.19 45 45z" fill="#6ba7ff"/></g><g><path d="m256 215h-112c-8.284 0-15-6.716-15-15v-64c0-8.284 6.716-15 15-15h112c8.284 0 15 6.716 15 15v64c0 8.284-6.716 15-15 15z" fill="#ffdf40"/></g><g><path d="m497 250h-1.52c-36.79 0-72.61-12.97-100.88-36.52-2.78-2.32-6.19-3.48-9.6-3.48s-6.82 1.16-9.6 3.48c-28.27 23.55-64.09 36.52-100.88 36.52h-1.52c-8.28 0-15 6.72-15 15v83.52c0 37.11 11.81 72.39 34.16 102.02 22.36 29.63 53.03 50.69 88.72 60.88 1.35.39 2.73.58 4.12.58s2.77-.19 4.12-.58c35.69-10.19 66.36-31.25 88.72-60.88 22.35-29.63 34.16-64.91 34.16-102.02v-83.52c0-8.28-6.72-15-15-15z" fill="#ace233"/></g><g><path d="m512 265v83.52c0 37.11-11.81 72.39-34.16 102.02-22.36 29.63-53.03 50.69-88.72 60.88-1.35.39-2.73.58-4.12.58v-302c3.41 0 6.82 1.16 9.6 3.48 28.27 23.55 64.09 36.52 100.88 36.52h1.52c8.28 0 15 6.72 15 15z" fill="#65cc3a"/></g><g><path d="m457.61 334.61-62 62c-2.93 2.93-6.77 4.39-10.61 4.39s-7.68-1.46-10.61-4.39l-32-32c-5.85-5.86-5.85-15.36 0-21.22 5.86-5.85 15.36-5.85 21.22 0l21.39 21.4 51.39-51.4c5.86-5.85 15.36-5.85 21.22 0 5.85 5.86 5.85 15.36 0 21.22z" fill="#f2f2fc"/></g><g><path d="m457.61 334.61-62 62c-2.93 2.93-6.77 4.39-10.61 4.39v-36.21l51.39-51.4c5.86-5.85 15.36-5.85 21.22 0 5.85 5.86 5.85 15.36 0 21.22z" fill="#d6d6f2"/></g></g></svg>