<svg id="Capa_1" enable-background="new 0 0 512 512" height="512" viewBox="0 0 512 512" width="512" xmlns="http://www.w3.org/2000/svg" xmlns:xlink="http://www.w3.org/1999/xlink"><linearGradient id="SVGID_1_" gradientUnits="userSpaceOnUse" x1="248.5" x2="248.5" y1="496" y2="31"><stop offset="0" stop-color="#00b59c"/><stop offset="1" stop-color="#9cffac"/></linearGradient><linearGradient id="SVGID_2_" gradientUnits="userSpaceOnUse" x1="286.5" x2="286.5" y1="436" y2="16"><stop offset="0" stop-color="#c3ffe8"/><stop offset=".9973" stop-color="#f0fff4"/></linearGradient><g><g><g><path d="m376 31c-66.167 0-120 53.833-120 120 0 15.93 3.265 31.079 8.926 45h-249.926c-8.284 0-15 6.716-15 15v270c0 8.284 6.716 15 15 15h421c8.284 0 15-6.716 15-15v-237.089c27.217-22.017 46-55.26 46-92.911 0-66.167-54.833-120-121-120z" fill="url(#SVGID_1_)"/></g></g><g><g><path d="m106 406h-30c-8.291 0-15 6.709-15 15s6.709 15 15 15h30c8.291 0 15-6.709 15-15s-6.709-15-15-15zm90 0h-30c-8.291 0-15 6.709-15 15s6.709 15 15 15h30c8.291 0 15-6.709 15-15s-6.709-15-15-15zm0-150h-120c-8.291 0-15 6.709-15 15v30c0 8.291 6.709 15 15 15h120c8.291 0 15-6.709 15-15v-30c0-8.291-6.709-15-15-15zm90 150h-30c-8.291 0-15 6.709-15 15s6.709 15 15 15h30c8.291 0 15-6.709 15-15s-6.709-15-15-15zm90 0h-30c-8.291 0-15 6.709-15 15s6.709 15 15 15h30c8.291 0 15-6.709 15-15s-6.709-15-15-15zm0-390c-74.443 0-135 60.557-135 135s60.557 135 135 135 136-60.557 136-135-61.557-135-136-135zm60.527 110.684-72.422 72.422c-2.93 2.93-6.768 4.395-10.605 4.395s-7.676-1.465-10.605-4.395l-34.922-34.922c-5.859-5.859-5.859-15.352 0-21.211s15.352-5.859 21.211 0l24.316 24.316 61.816-61.816c5.859-5.859 15.352-5.859 21.211 0s5.86 15.351 0 21.211z" fill="url(#SVGID_2_)"/></g></g></g></svg>