<svg id="Capa_1" enable-background="new 0 0 512 512" height="512" viewBox="0 0 512 512" width="512" xmlns="http://www.w3.org/2000/svg" xmlns:xlink="http://www.w3.org/1999/xlink"><linearGradient id="SVGID_1_" gradientUnits="userSpaceOnUse" x1="256" x2="256" y1="496" y2="16"><stop offset="0" stop-color="#00b59c"/><stop offset="1" stop-color="#9cffac"/></linearGradient><g><g><g><path d="m196 256h-121c-8.284 0-15 6.716-15 15v60c0 8.284 6.716 15 15 15h121c8.284 0 15-6.716 15-15v-60c0-8.284-6.716-15-15-15zm-15 60h-91v-30h91zm-75 90h-31c-8.284 0-15 6.716-15 15s6.716 15 15 15h31c8.284 0 15-6.716 15-15s-6.716-15-15-15zm90 0h-30c-8.284 0-15 6.716-15 15s6.716 15 15 15h30c8.284 0 15-6.716 15-15s-6.716-15-15-15zm90 0h-30c-8.284 0-15 6.716-15 15s6.716 15 15 15h30c8.284 0 15-6.716 15-15s-6.716-15-15-15zm60 0c-8.284 0-15 6.716-15 15s6.716 15 15 15h30c8.284 0 15-6.716 15-15s-6.716-15-15-15zm30-390c-74.439 0-135 60.561-135 135 0 15.772 2.728 30.918 7.722 45h-233.722c-8.284 0-15 6.716-15 15v270c0 8.284 6.716 15 15 15h421c8.284 0 15-6.716 15-15v-217.443c36.732-24.197 61-65.614 61-112.557 0-74.439-61.01-135-136-135zm45 450h-391v-240h233.806c24.248 36.154 65.487 60 112.194 60 15.765 0 30.908-2.686 45-7.605zm-45-210c-57.897 0-105-47.103-105-105s47.103-105 105-105c58.448 0 106 47.103 106 105 0 55.984-46.231 105-106 105zm39.32-150.533-61.82 61.82-24.32-24.32c-5.857-5.858-15.355-5.858-21.213 0s-5.858 15.355 0 21.213l34.927 34.927c2.929 2.929 6.768 4.393 10.606 4.393s7.678-1.464 10.606-4.393l72.427-72.427c5.858-5.858 5.858-15.355 0-21.213-5.856-5.858-15.354-5.858-21.213 0z" fill="url(#SVGID_1_)"/></g></g></g></svg>